<?xml version="1.0" encoding="utf-8"?>
<!-- Generator: Adobe Illustrator 26.0.2, SVG Export Plug-In . SVG Version: 6.00 Build 0)  -->
<svg version="1.1" id="Layer_1" xmlns="http://www.w3.org/2000/svg" xmlns:xlink="http://www.w3.org/1999/xlink" x="0px" y="0px"
	 viewBox="0 0 1556.3 611.5" style="enable-background:new 0 0 1556.3 611.5;" xml:space="preserve">
<style type="text/css">
	.st0{fill:#FAF6ED;}
	.st1{fill:#FFFFFF;stroke:#000000;stroke-linecap:round;stroke-miterlimit:10;}
	.st2{fill:none;stroke:#97A2A5;stroke-miterlimit:10;}
	.st3{fill:#FDDE92;}
	.st4{fill:#7F7F7F;}
	.st5{fill:#FFFFFF;stroke:#000000;stroke-miterlimit:10;}
	.st6{fill:none;stroke:#000000;stroke-linecap:round;stroke-miterlimit:10;}
	.st7{fill:#000100;}
	.st8{fill:none;stroke:#FFFFFF;stroke-miterlimit:10;}
	.st9{fill:#FFFFFF;stroke:#000000;stroke-linecap:round;stroke-linejoin:round;stroke-miterlimit:10;}
	.st10{fill:none;stroke:#A6A6A6;stroke-miterlimit:10;}
	.st11{fill:none;stroke:#A6A6A6;stroke-linecap:round;stroke-linejoin:round;stroke-miterlimit:10;}
	.st12{fill:none;stroke:#474747;stroke-linecap:round;stroke-miterlimit:10;}
	.st13{fill:none;stroke:#474747;stroke-linecap:round;stroke-linejoin:round;stroke-miterlimit:10;}
	.st14{fill:none;stroke:#000000;stroke-miterlimit:10;}
	.st15{fill:none;stroke:#000000;stroke-linecap:round;stroke-linejoin:round;stroke-miterlimit:10;}
	.st16{fill:none;stroke:#474747;stroke-miterlimit:10;}
	.st17{display:none;}
	.st18{display:inline;fill:none;stroke:#474747;stroke-linecap:round;stroke-miterlimit:10;}
	.st19{fill:#F5F2EA;stroke:#474747;stroke-linecap:round;stroke-miterlimit:10;}
</style>
<g id="Layer_1_00000114043915200007182250000003488967157649535114_">
	<rect x="8" class="st0" width="1540" height="611.5"/>
	<g>
		<path class="st1" d="M1320.4,603.5h-143.6c-1,0-1.7-0.8-1.7-1.7V416c0-1,0.8-1.7,1.7-1.7h143.6c1,0,1.7,0.8,1.7,1.7v185.7
			C1322.1,602.7,1321.4,603.5,1320.4,603.5z"/>
	</g>
	<circle class="st2" cx="492" cy="334.2" r="8.6"/>
	<path class="st2" d="M388.6,414.3c0,0,14.7,13.1,29.4-7.2c7.6-10.5,5.9-11.5,2.5-10c-6.9,3-9.2,12-4,17.5c1.6,1.7,3.8,3.1,6.9,3.8
		c12.5,3,24-14.5,31.1-25.2c7.2-10.7,11.1,7.9,11.1,7.9s3.2,15.9,11.5,9.1s13.1-13.9,28.6-9.1"/>
	<path class="st2" d="M126.3,256.5c0,0,13.1,11.9,27.4,0c14.3-11.9,4.8-16.1,4.8-16.1s-10.5,7,3.1,21.4"/>
	<g>
		<path class="st3" d="M189.9,603h-65.5c-1,0-1.7-0.8-1.7-1.7v-96.2c0-1,0.8-1.7,1.7-1.7h65.5c1,0,1.7,0.8,1.7,1.7v96.2
			C191.6,602.2,190.8,603,189.9,603z"/>
		<g>
			<path d="M147.3,505.6L147.3,505.6L147.3,505.6c0.8,1.5,2.1,2.8,3.6,3.6l0,0l0,0c-1.5,0.8-2.8,2.1-3.6,3.6l0,0l0,0
				c-0.8-1.5-2.1-2.8-3.6-3.6l0,0l0,0C145.2,508.4,146.5,507.2,147.3,505.6z"/>
			<path d="M167,505.6L167,505.6L167,505.6c0.8,1.5,2.1,2.8,3.6,3.6l0,0l0,0c-1.5,0.8-2.8,2.1-3.6,3.6l0,0l0,0
				c-0.8-1.5-2.1-2.8-3.6-3.6l0,0l0,0C164.9,508.4,166.2,507.2,167,505.6z"/>
			<path d="M186.7,505.6L186.7,505.6L186.7,505.6c0.8,1.5,2.1,2.8,3.6,3.6l0,0l0,0c-1.5,0.8-2.8,2.1-3.6,3.6l0,0l0,0
				c-0.8-1.5-2.1-2.8-3.6-3.6l0,0l0,0C184.7,508.4,185.9,507.2,186.7,505.6z"/>
		</g>
		<g>
			<path d="M137.4,523.1L137.4,523.1L137.4,523.1c0.8,1.5,2.1,2.8,3.6,3.6l0,0l0,0c-1.5,0.8-2.8,2.1-3.6,3.6l0,0l0,0
				c-0.8-1.5-2.1-2.8-3.6-3.6l0,0l0,0C135.3,525.8,136.6,524.6,137.4,523.1z"/>
			<path d="M157.1,523.1L157.1,523.1L157.1,523.1c0.8,1.5,2.1,2.8,3.6,3.6l0,0l0,0c-1.5,0.8-2.8,2.1-3.6,3.6l0,0l0,0
				c-0.8-1.5-2.1-2.8-3.6-3.6l0,0l0,0C155.1,525.8,156.3,524.6,157.1,523.1z"/>
			<path d="M176.9,523.1L176.9,523.1L176.9,523.1c0.8,1.5,2.1,2.8,3.6,3.6l0,0l0,0c-1.5,0.8-2.8,2.1-3.6,3.6l0,0l0,0
				c-0.8-1.5-2.1-2.8-3.6-3.6l0,0l0,0C174.8,525.8,176.1,524.6,176.9,523.1z"/>
		</g>
		<g>
			<path d="M127.5,540.5L127.5,540.5L127.5,540.5c0.8,1.5,2.1,2.8,3.6,3.6l0,0l0,0c-1.5,0.8-2.8,2.1-3.6,3.6l0,0l0,0
				c-0.8-1.5-2.1-2.8-3.6-3.6l0,0l0,0C125.5,543.2,126.7,542,127.5,540.5z"/>
			<path d="M147.3,540.5L147.3,540.5L147.3,540.5c0.8,1.5,2.1,2.8,3.6,3.6l0,0l0,0c-1.5,0.8-2.8,2.1-3.6,3.6l0,0l0,0
				c-0.8-1.5-2.1-2.8-3.6-3.6l0,0l0,0C145.2,543.2,146.5,542,147.3,540.5z"/>
			<path d="M167,540.5L167,540.5L167,540.5c0.8,1.5,2.1,2.8,3.6,3.6l0,0l0,0c-1.5,0.8-2.8,2.1-3.6,3.6l0,0l0,0
				c-0.8-1.5-2.1-2.8-3.6-3.6l0,0l0,0C164.9,543.2,166.2,542,167,540.5z"/>
			<path d="M186.7,540.5L186.7,540.5L186.7,540.5c0.8,1.5,2.1,2.8,3.6,3.6l0,0l0,0c-1.5,0.8-2.8,2.1-3.6,3.6l0,0l0,0
				c-0.8-1.5-2.1-2.8-3.6-3.6l0,0l0,0C184.7,543.2,185.9,542,186.7,540.5z"/>
		</g>
		<g>
			<path d="M137.4,557.9L137.4,557.9L137.4,557.9c0.8,1.5,2.1,2.8,3.6,3.6l0,0l0,0c-1.5,0.8-2.8,2.1-3.6,3.6l0,0l0,0
				c-0.8-1.5-2.1-2.8-3.6-3.6l0,0l0,0C135.3,560.6,136.6,559.4,137.4,557.9z"/>
			<path d="M157.1,557.9L157.1,557.9L157.1,557.9c0.8,1.5,2.1,2.8,3.6,3.6l0,0l0,0c-1.5,0.8-2.8,2.1-3.6,3.6l0,0l0,0
				c-0.8-1.5-2.1-2.8-3.6-3.6l0,0l0,0C155.1,560.6,156.3,559.4,157.1,557.9z"/>
			<path d="M176.9,557.9L176.9,557.9L176.9,557.9c0.8,1.5,2.1,2.8,3.6,3.6l0,0l0,0c-1.5,0.8-2.8,2.1-3.6,3.6l0,0l0,0
				c-0.8-1.5-2.1-2.8-3.6-3.6l0,0l0,0C174.8,560.6,176.1,559.4,176.9,557.9z"/>
		</g>
		<g>
			<path d="M127.5,575.3L127.5,575.3L127.5,575.3c0.8,1.5,2.1,2.8,3.6,3.6l0,0l0,0c-1.5,0.8-2.8,2.1-3.6,3.6l0,0l0,0
				c-0.8-1.5-2.1-2.8-3.6-3.6l0,0l0,0C125.5,578,126.7,576.8,127.5,575.3z"/>
			<path d="M147.3,575.3L147.3,575.3L147.3,575.3c0.8,1.5,2.1,2.8,3.6,3.6l0,0l0,0c-1.5,0.8-2.8,2.1-3.6,3.6l0,0l0,0
				c-0.8-1.5-2.1-2.8-3.6-3.6l0,0l0,0C145.2,578,146.5,576.8,147.3,575.3z"/>
			<path d="M167,575.3L167,575.3L167,575.3c0.8,1.5,2.1,2.8,3.6,3.6l0,0l0,0c-1.5,0.8-2.8,2.1-3.6,3.6l0,0l0,0
				c-0.8-1.5-2.1-2.8-3.6-3.6l0,0l0,0C164.9,578,166.2,576.8,167,575.3z"/>
			<path d="M186.7,575.3L186.7,575.3L186.7,575.3c0.8,1.5,2.1,2.8,3.6,3.6l0,0l0,0c-1.5,0.8-2.8,2.1-3.6,3.6l0,0l0,0
				c-0.8-1.5-2.1-2.8-3.6-3.6l0,0l0,0C184.7,578,185.9,576.8,186.7,575.3z"/>
		</g>
		<g>
			<path d="M137.4,592.7L137.4,592.7L137.4,592.7c0.8,1.5,2.1,2.8,3.6,3.6l0,0l0,0c-1.5,0.8-2.8,2.1-3.6,3.6l0,0l0,0
				c-0.8-1.5-2.1-2.8-3.6-3.6l0,0l0,0C135.3,595.5,136.6,594.2,137.4,592.7z"/>
			<path d="M157.1,592.7L157.1,592.7L157.1,592.7c0.8,1.5,2.1,2.8,3.6,3.6l0,0l0,0c-1.5,0.8-2.8,2.1-3.6,3.6l0,0l0,0
				c-0.8-1.5-2.1-2.8-3.6-3.6l0,0l0,0C155.1,595.5,156.3,594.2,157.1,592.7z"/>
			<path d="M176.9,592.7L176.9,592.7L176.9,592.7c0.8,1.5,2.1,2.8,3.6,3.6l0,0l0,0c-1.5,0.8-2.8,2.1-3.6,3.6l0,0l0,0
				c-0.8-1.5-2.1-2.8-3.6-3.6l0,0l0,0C174.8,595.5,176.1,594.2,176.9,592.7z"/>
		</g>
	</g>
	<g>
		<path class="st2" d="M993.1,581.9c0,0,12.7,10.6,13.9,20.7"/>
		<path class="st2" d="M1027.4,581.9c0,0-12.7,10.6-13.9,20.7"/>
	</g>
	<g>
		<g>
			<polygon class="st1" points="1260.3,236.9 1269.5,258.3 1295.8,245.5 1280.9,224.4 			"/>
			<path class="st4" d="M1069.1,269.8l36,95.4c0.5,1.2,1.8,2,3.1,1.7l84.6-16.3c2.6-0.5,3-4,0.7-5.1l-9.7,0.3
				c-0.5-0.2-1-0.3-1.5-0.3l-70.4,12.9c-1.3,0.1-2.6-0.7-2.9-2c-2.8-10.8-22.5-56.5-33-86.8C1073.4,262.3,1066.3,262.6,1069.1,269.8
				z"/>
			<circle class="st1" cx="1260.4" cy="204.9" r="32.2"/>
			<path d="M1228.3,199.8c0,0,10-0.6,17.3-9.7c0,0,5.8,12.1,8.5,12.8c2.7,0.6,11.8,1.5,14.6-1.5c2.7-3,7.9-2.7,7.9,2.1
				s-3,12.4-4.6,12.7c-1.5,0.3,17.6,25.2,17.6,25.2l11.5,10h55.9c0,0-2.1-12.5-14.9-22.5s-14.6-14-14.6-14s-1.8-16.7-16.7-18.5
				c-14.9-1.8-18.2-18.2-18.2-18.2s-3.3-7.3-17.9-11.2C1260.1,163.1,1234.3,166.7,1228.3,199.8z"/>
			<g>
				<path class="st5" d="M1226.7,323.9c0,0-65,3.7-79,6.5c-4.2,0.8-9.3,4.2-9.3,6.7c0,1.2,9.3-4.2,9.3-4.2s-11,5.1-10.1,6.7
					c0.9,1.8,12.7-4.2,12.7-4.2s-12.7,5.1-11.8,6.7c1.4,2.7,13.5-4.2,13.5-4.2s-11.8,5.1-11,7.6c0.2,0.6,11.5-3.8,11-3.4
					c-7.6,5.9-3.2,5.4-0.8,4.2c6.4-3.2,10.3-4.1,10.3-4.1l51.1,0.1l26.1-5.9L1226.7,323.9z"/>
			</g>
			<path d="M1303.1,164.9c0,6.9-5.6,10.6-12.6,10.6c-6.9,0-12.6-3.6-12.6-10.6c0-6.9,5.6-12.6,12.6-12.6
				C1297.5,152.4,1303.1,158,1303.1,164.9z"/>
			<polyline class="st1" points="1122.6,381.1 1068.6,491.7 1117.2,517.2 1142.7,471.7 			"/>
			<path class="st6" d="M1249.7,227.8c0,0,8.9-1.4,8.4-6.8"/>
			<path class="st1" d="M1326.4,341.9c0,0,14.3,43.8-15.7,64.8c-7.7,5.4-16.9,8-26.3,8l-104.6,0.1l40.1,92.3l-49.2,20.7
				c0,0-46.2-83.2-48.6-137.9s88.7-41.9,88.7-41.9L1326.4,341.9z"/>
			<path class="st6" d="M1269.5,213c0,0,3.2-3.9,2.1-5.7"/>
			<g>
				<path class="st5" d="M1254.5,339.7c0,0-11.8,29.6-37.4,22.3c-25.5-7.3-67-47.2-88.3-46c0,0-7.2,2-13.2,7.5
					c-0.8,0.7-2.1,0.2-1.7-0.8s2.5-2.4,2.6-3.9c0-0.5-5.1,5.6-6.8,3.9c-0.9-0.9,6.7-8.4,6.7-8.4s-7.6,8.4-9.3,5.9
					c-1-1.6,10.1-10.1,10.1-10.1s-10.5,8.9-11.8,7.6c-1.7-1.7,11-10.1,11-10.1s-8.4,6.7-9.3,5.1c-0.6-1.3,0.8-2.5,1.7-3.4
					c3.8-3.8,15.2-15.1,30.8-11.9c15.6,3.2,53.9,21.6,53.9,21.6l27.8,15.3c0,0,0,2.6,9.4-9.1"/>
			</g>
			<path d="M1274.8,233.9l-12.7,7.2l-1.7-4C1260.4,237.1,1271.7,235.9,1274.8,233.9z"/>
			<path class="st7" d="M1266.1,253.8l32.3-11.4c0,0,36,56,37.8,105.2h-80.6l-29.6-24.1c0,0,30.1-44.6,39.2-50.6L1266.1,253.8z"/>
			<path d="M1087.8,502c0,0-6.9,11-11.2,11.9c-4.3,0.9-21.2,2.4-22.5,6.7c-0.4,1.5,39.8,21.6,39.8,21.6l15.8-28.5L1087.8,502z"/>
			<path d="M1184.8,521.8c0,0,7.6,14.8,6.1,18.8s-9,17-6.5,22.5c0.6,1.4,39.6-21.9,39.6-21.9l-15.1-29.6L1184.8,521.8z"/>
			<path class="st1" d="M1188.4,545.4c0,0,3.9-3.4,7.1-1.4c3.2,2.1,0.4,6.1-3.5,1.4c-3.9-4.7-10-3.8-10.5-2
				C1180.9,545.1,1186.3,546.7,1188.4,545.4z"/>
			<path class="st1" d="M1069.6,514.7c0,0,5.1-0.6,6.6,3s-3.2,5.2-3.7-0.9c-0.5-6.1-6-8.9-7.5-7.7
				C1063.6,510.1,1067.1,514.5,1069.6,514.7z"/>
		</g>
		<g>
			<line class="st8" x1="1289.7" y1="273.1" x2="1298" y2="279.2"/>
			<line class="st8" x1="1270.9" y1="276.2" x2="1279.2" y2="282.2"/>
			<line class="st8" x1="1289.7" y1="294.7" x2="1298" y2="300.8"/>
			<line class="st8" x1="1240.6" y1="323.9" x2="1248.8" y2="330"/>
			<line class="st8" x1="1293.8" y1="254.2" x2="1302.1" y2="260.3"/>
			<line class="st8" x1="1265.7" y1="288.9" x2="1273.9" y2="294.9"/>
			<line class="st8" x1="1290.8" y1="313.6" x2="1299.1" y2="319.6"/>
			<line class="st8" x1="1320.8" y1="327" x2="1329" y2="333"/>
			<line class="st8" x1="1308.3" y1="296.8" x2="1316.5" y2="302.8"/>
			<line class="st8" x1="1295" y1="332.5" x2="1303.2" y2="338.5"/>
			<line class="st8" x1="1249.5" y1="307.4" x2="1257.7" y2="313.5"/>
			<line class="st8" x1="1273.1" y1="310.4" x2="1281.3" y2="316.5"/>
			<line class="st8" x1="1268.4" y1="333.4" x2="1276.6" y2="339.5"/>
		</g>
	</g>
	<g>
		<path class="st9" d="M310.1,603.5h-82.8c-1,0-1.7-0.8-1.7-1.7V476.1c0-1,0.8-1.7,1.7-1.7h82.8c1,0,1.7,0.8,1.7,1.7v125.6
			C311.8,602.7,311,603.5,310.1,603.5z"/>
	</g>
	<circle class="st2" cx="909" cy="371.7" r="2.1"/>
	<circle class="st2" cx="1008.5" cy="348.1" r="5.1"/>
	<g>
		<path class="st10" d="M410.1,590.8c0,0,7.5,3.7,7.6,12.5"/>
		<path class="st10" d="M422.9,603.3c0,0-1.1-8.2,6.1-13.2"/>
	</g>
	<line class="st2" x1="1491.2" y1="603.5" x2="100.8" y2="603.5"/>
</g>
<g id="arrow_in_box">
	<path class="st11" d="M249,587.5c0,0,16.7-5.1,8.1-25.6c-4.5-10.6-6-9.8-6.4-6.5c-0.9,6.6,4.9,12.5,11.4,11.1
		c2-0.4,4.1-1.5,6.1-3.5c8-8.1,0-24.9-4.9-35.2c-4.9-10.4,11.1-4.8,11.1-4.8s13.5,4.9,12.2-4.6c-1.3-9.4-4.2-16.5,6.6-26.1
		c0,0-2.8,0.3-4.6,0.2c-1.8-0.1,4.6-0.2,4.6-0.2s-0.5,2.1-1,4.3"/>
</g>
<g id="line_1_00000170974353943571563720000007499695471741008827_">
</g>
<g id="line2">
</g>
<g id="button">
</g>
<g id="form">
	<path class="st12" d="M1109.6,96.6h-41.1c-2.3,0-4.2-1.9-4.2-4.2V31.8c0-2.3,1.9-4.2,4.2-4.2h41.1c2.3,0,4.2,1.9,4.2,4.2v60.6
		C1113.7,94.7,1111.9,96.6,1109.6,96.6z"/>
</g>
<g id="chat_2">
	<path class="st13" d="M323.6,85.8c-1.1-4.3-2.5-8.5-3.4-12.8c-0.5-2.4-1.5-3.9-3.7-4.8c-2.2-1-4.4-2.2-6.5-3.4
		c-1.2-0.6-1.2-1.5-0.7-2.8c2.9-6.2,5.8-12.3,8.4-18.6c2-4.9,2-5.2,6.8-3c9.4,4.3,18.7,8.8,28.1,13.3c1.7,0.8,2.1,2,1.3,3.6
		c-2,4.1-4,8.2-6.1,12.4c-1.3,2.6-2.6,5.2-3.7,7.8c-0.7,1.5-1.6,2.1-3.1,1.4c-2.7-1.1-5.3-2.2-7.9-3.5c-1.6-0.8-2.5-0.5-3.3,1.1
		c-1.2,2.5-2.5,4.9-3.9,7.2c-0.4,0.7-1,1.3-1.5,2C324.2,85.9,323.9,85.9,323.6,85.8z"/>
</g>
<g id="chat_1">
	<path class="st13" d="M292.2,83c1.6-3.9,2.9-7,4.2-10.1c0.6-1.3,0.2-1.9-1.2-2.5c-2.6-1.1-5-2.5-7.5-3.8c-1.2-0.7-1.4-1.6-0.8-3
		c3.5-7.8,6.9-15.6,10.2-23.4c0.8-1.9,1.8-2.2,3.6-1.3c3.8,1.9,7.5,3.8,11.3,5.6c1.3,0.6,1.3,1.4,0.8,2.5
		c-2.4,5.4-4.7,10.9-7.2,16.2c-0.9,1.9-0.6,2.7,1.3,3.6c3.2,1.5,6.3,3.3,9.3,5.1c0.6,0.4,1.1,1.2,1.3,1.9c0.5,1.8,0.9,3.6,1.2,5.4
		c0.1,0.6-0.2,1.2-0.3,1.8c-0.5-0.1-1.1-0.2-1.6-0.4c-2.4-1.1-4.8-2.3-7.2-3.5c-1.6-0.9-3-0.6-4.6,0.2C300.9,79.3,296.8,81,292.2,83
		z"/>
</g>
<g id="line">
	<line class="st12" x1="1147.8" y1="229.2" x2="1147.8" y2="243.7"/>
</g>
<g id="star_3">
	<g>
		<line class="st12" x1="1115.8" y1="238.7" x2="1107" y2="234.1"/>
		<line class="st12" x1="1115.9" y1="234.4" x2="1106.8" y2="238.5"/>
		<line class="st12" x1="1111.4" y1="231.4" x2="1111.4" y2="241.4"/>
	</g>
</g>
<g id="star_2">
	<g>
		<line class="st12" x1="1138.6" y1="238.7" x2="1129.7" y2="234.1"/>
		<line class="st12" x1="1138.7" y1="234.4" x2="1129.6" y2="238.5"/>
		<line class="st12" x1="1134.2" y1="231.4" x2="1134.2" y2="241.4"/>
	</g>
</g>
<g id="star_1">
	<g>
		<line class="st12" x1="1093" y1="238.7" x2="1084.2" y2="234.1"/>
		<line class="st12" x1="1093.2" y1="234.4" x2="1084.1" y2="238.5"/>
		<line class="st12" x1="1088.6" y1="231.4" x2="1088.6" y2="241.4"/>
	</g>
</g>
<g id="automation_big">
	<path class="st14" d="M1436,349.9c-0.8-1-1.6-2-2.4-3c-0.2-0.3-0.4-0.4-0.8-0.3c-0.7,0.2-1.4,0.3-2.1,0.5c-0.2,0.1-0.4,0.2-0.5,0.4
		c-0.3,1.1-0.6,2.1-0.9,3.2c-0.1,0.4-0.3,0.6-0.7,0.5c-0.7,0-1.4-0.1-2.1-0.1c-0.4,0-0.5-0.2-0.5-0.5c-0.1-1.1-0.3-2.2-0.5-3.3
		c0-0.2-0.3-0.4-0.5-0.5c-0.7-0.3-1.4-0.5-2.1-0.7c-0.2-0.1-0.5,0-0.7,0.2c-0.9,0.9-1.8,1.8-2.8,2.7c-0.8-0.5-1.5-1-2.3-1.5
		c-0.1-0.1-0.2-0.4-0.1-0.6c0.4-1.1,0.8-2.1,1.2-3.2c0.1-0.3,0.1-0.5-0.2-0.8c-0.5-0.5-0.9-1.1-1.5-1.6c-0.2-0.2-0.5-0.3-0.7-0.2
		c-1.1,0.2-2.2,0.5-3.2,0.8c-0.3,0.1-0.5,0.1-0.7-0.3c-0.4-0.8-0.8-1.5-1.2-2.3c1-0.8,1.9-1.6,2.8-2.3c0.4-0.3,0.5-0.5,0.4-1
		c-0.2-0.6-0.3-1.2-0.4-1.8c0-0.4-0.2-0.6-0.6-0.7c-1.1-0.3-2.1-0.6-3.2-0.9c-0.2-0.1-0.4-0.3-0.4-0.5c0-0.7,0.1-1.5,0.1-2.2
		c0-0.4,0.2-0.5,0.6-0.5c1.1-0.1,2.2-0.3,3.3-0.5c0.2,0,0.4-0.3,0.5-0.5c0.3-0.7,0.4-1.4,0.7-2c0.1-0.3,0.1-0.5-0.2-0.8
		c-0.9-0.9-1.7-1.8-2.7-2.7c0.5-0.8,1-1.6,1.6-2.3c0.1-0.1,0.4-0.1,0.5-0.1c1,0.4,2.1,0.8,3.1,1.2c0.3,0.1,0.5,0.1,0.8-0.2
		c0.5-0.5,1-1,1.6-1.4c0.3-0.2,0.3-0.5,0.2-0.8c-0.3-1.1-0.5-2.1-0.8-3.2c-0.1-0.3-0.1-0.5,0.3-0.7c0.8-0.4,1.5-0.8,2.3-1.2
		c0.8,1,1.6,2,2.4,2.9c0.2,0.3,0.5,0.4,0.8,0.3c0.7-0.2,1.4-0.3,2-0.5c0.2-0.1,0.5-0.3,0.5-0.5c0.3-1.1,0.6-2.1,0.9-3.2
		c0.1-0.3,0.2-0.5,0.6-0.5c0.7,0,1.5,0.1,2.2,0.1c0.2,0,0.4,0.3,0.5,0.5c0.2,1.1,0.4,2.2,0.5,3.3c0,0.4,0.2,0.5,0.6,0.6
		c0.7,0.2,1.3,0.4,2,0.7c0.3,0.1,0.5,0.1,0.8-0.2c0.9-0.9,1.8-1.7,2.7-2.7c0.8,0.5,1.5,1,2.3,1.5c0.1,0.1,0.2,0.4,0.1,0.6
		c-0.4,1.1-0.8,2.1-1.2,3.2c-0.1,0.2,0,0.5,0.1,0.7c0.4,0.6,1,1.1,1.4,1.6c0.2,0.3,0.4,0.3,0.7,0.3c1.1-0.3,2.2-0.6,3.2-0.9
		c0.4-0.1,0.5,0,0.7,0.3c0.4,0.8,0.8,1.5,1.2,2.3c-1,0.8-2,1.6-2.9,2.4c-0.3,0.2-0.4,0.5-0.3,0.8c0.2,0.6,0.3,1.2,0.4,1.8
		c0,0.5,0.3,0.7,0.8,0.9c1,0.2,1.9,0.6,2.9,0.8c0.4,0.1,0.6,0.3,0.5,0.7c0,0.7-0.1,1.3-0.1,2c0,0.4-0.2,0.6-0.6,0.6
		c-1.1,0.1-2.2,0.3-3.3,0.5c-0.2,0-0.4,0.2-0.5,0.4c-0.3,0.7-0.5,1.4-0.7,2.1c-0.1,0.2,0,0.5,0.2,0.7c0.9,0.9,1.8,1.8,2.7,2.8
		c-0.5,0.8-1,1.5-1.5,2.3c-0.1,0.1-0.4,0.2-0.6,0.1c-1-0.4-2.1-0.8-3.1-1.2c-0.4-0.1-0.6-0.1-0.9,0.2c-0.5,0.5-1,0.9-1.5,1.3
		c-0.3,0.2-0.4,0.5-0.3,0.8c0.3,1,0.5,2.1,0.8,3.1c0.1,0.4,0.1,0.6-0.3,0.8C1437.6,349.1,1436.8,349.5,1436,349.9z M1418.7,331.5
		c-0.3,5.6,3.9,10.4,9.5,10.7c5.6,0.3,10.3-3.9,10.7-9.5c0.3-5.6-3.9-10.4-9.5-10.7C1423.8,321.7,1419,326,1418.7,331.5z"/>
</g>
<g id="automation_medium">
	<path class="st14" d="M1453.5,308.3c-0.7,0.5-1.4,1-2,1.5c-0.8-0.6-1.6-1.1-2.3-1.7c-0.8-0.6-2-0.3-2.4,0.6c-0.3,0.7-0.7,1.4-1,2.1
		c-0.1,0.2-0.4,0.3-0.6,0.4c0,0-0.1,0-0.2,0c-1.9-0.1-1.9-0.1-2.2-2c0-0.2-0.1-0.4-0.1-0.6c0.1-1.1-0.6-1.5-1.4-1.9
		c-0.2-0.1-0.4,0-0.6,0c-0.9,0.3-1.9,0.6-3,1c-0.5-0.7-1-1.4-1.5-2c0.6-0.9,1.2-1.7,1.8-2.4c0.4-0.6,0.1-1.9-0.5-2.2
		c-0.8-0.4-1.5-0.7-2.3-1.1c-0.2-0.1-0.3-0.4-0.4-0.6c0,0,0-0.1,0-0.2c0.1-1.9,0.1-1.9,2-2.2c0.2,0,0.4-0.1,0.6-0.1
		c1.1,0.1,1.5-0.6,1.9-1.4c0.1-0.2,0-0.4,0-0.6c-0.3-0.9-0.6-1.9-1-3c0.7-0.5,1.4-1,2.1-1.5c0.8,0.6,1.6,1.1,2.3,1.7
		c0.7,0.5,2,0.2,2.4-0.6c0.3-0.7,0.7-1.4,1.1-2.1c0.1-0.2,0.4-0.3,0.6-0.4c0,0,0.1,0,0.2,0c1.9,0.1,1.9,0.1,2.2,2
		c0,0.2,0.1,0.4,0.1,0.6c-0.1,1.1,0.6,1.5,1.4,1.9c0.2,0.1,0.4,0,0.6,0c0.5-0.1,1-0.3,1.4-0.5c0.5-0.2,0.9-0.3,1.5-0.5
		c0.5,0.7,1,1.4,1.5,2c-0.6,0.9-1.2,1.7-1.8,2.5c-0.4,0.5,0,1.9,0.6,2.2c0.8,0.4,1.5,0.7,2.3,1.1c0.2,0.1,0.3,0.4,0.4,0.6
		c0,0,0,0.1,0,0.2c-0.1,1.9-0.1,1.9-2,2.2c-0.2,0-0.4,0.1-0.6,0.1c-1-0.1-1.4,0.7-1.8,1.4c-0.1,0.2,0,0.4,0,0.6
		C1452.8,306.3,1453.2,307.3,1453.5,308.3z M1449.9,300.8c0.3-2.2-1.2-4.3-3.4-4.6c-2.2-0.3-4.2,1.2-4.6,3.4
		c-0.3,2.2,1.2,4.3,3.4,4.6C1447.5,304.5,1449.5,303,1449.9,300.8z"/>
</g>
<g id="automation_small">
	<path class="st14" d="M1457.6,317.6c0.5,0.1,0.9,0.3,1.4,0.4c1.1,0.3,2.2-0.3,2.4-1.4v-0.1c0.3-1.5,0.4-1.7,2.1-1.6
		c0.2,0,0.4,0.2,0.6,0.3c0.1,0.1,0.2,0.3,0.2,0.4c0.3,1.1,1.1,1.5,2.1,1.6c0.2,0,0.4,0,0.5-0.1c0.4-0.2,0.8-0.4,1.1-0.7
		c0.4-0.3,0.7-0.3,1.2,0c1.2,0.9,1.3,0.9,0.7,2.3c-0.4,1,0.2,1.6,0.6,2.3c0.1,0.2,0.6,0.2,1,0.3c1.4,0.3,1.4,0.3,1.6,1.8
		c0.1,0.5,0,0.8-0.5,1c-0.1,0-0.2,0.1-0.3,0.2c-1.1,0.3-1.4,1.2-1.5,2.1c0,0.1,0,0.3,0.1,0.4c0.1,0.2,0.2,0.4,0.4,0.6
		c0.8,1.2,0.7,1.8-0.4,2.7c-0.1,0.1-0.3,0.1-0.4,0.1c-0.2,0-0.5-0.1-0.7-0.2c-1-0.6-1.8-0.2-2.6,0.4c-0.1,0.1-0.2,0.3-0.3,0.5
		c-0.1,0.4-0.2,0.7-0.2,1.1c0,0.7-0.4,1-1.1,1c-0.1,0-0.3,0-0.4,0.1c-0.6,0.2-1.1,0-1.3-0.7c0-0.1-0.1-0.2-0.1-0.3
		c-0.2-1.1-1.2-1.2-2.1-1.5c-0.1,0-0.3,0.1-0.5,0.2s-0.4,0.3-0.7,0.4c-0.4,0.2-0.8,0.6-1.1,0.5c-0.6-0.2-1-0.7-1.5-1.1
		c-0.1-0.1-0.1-0.2,0-0.3c0-0.2,0.1-0.4,0.2-0.5c0.5-0.9,0.4-1.8-0.3-2.6c-0.2-0.2-0.4-0.3-0.6-0.4s-0.4-0.1-0.6-0.1
		c-0.4-0.1-1.1-0.1-1.2-0.4c-0.3-0.5-0.3-1.2-0.3-1.8c0-0.1,0.1-0.3,0.2-0.4c0.2-0.1,0.4-0.2,0.6-0.3c1.3-0.7,1.3-0.7,1.6-2.1
		c0-0.2,0-0.4-0.1-0.5c-0.2-0.4-0.5-0.7-0.7-1.1c-0.1-0.3-0.3-0.6-0.2-0.8c0.2-0.6,0.6-1.1,0.9-1.7
		C1457.4,317.5,1457.5,317.6,1457.6,317.6z M1467.1,323.5c-0.2-1.6-1.7-2.8-3.4-2.6c-1.7,0.2-2.9,1.8-2.6,3.4
		c0.2,1.7,1.8,2.8,3.4,2.6C1466.2,326.7,1467.3,325.2,1467.1,323.5z"/>
</g>
<g id="arrow_1">
	<path class="st15" d="M1404.6,315.7c0,0,4.3-7,16.9-8.8l-3.1-1.3l3.1,1.3l-2.6,2.7"/>
</g>
<g id="arrow_2">
	<path class="st15" d="M1461.7,309.8c0,0,4.5-6.9,0.6-19.1l2.5,2.2l-2.5-2.2l-1.3,3.5"/>
</g>
<g id="megaphone">
	<g>
		<path class="st12" d="M1361.4,22.3c0.5-0.7,0.9-1.2,1.3-1.6c1.6-1.7,3.6-1.7,5.2,0c1.5,1.5,2.4,3.4,3.1,5.4
			c1.6,4.4,2.1,8.9,2,13.5c-0.1,3.4-0.4,6.8-1.7,10c-0.6,1.6-1.3,3.1-2.6,4.3c-0.6,0.6-1.4,1-2.2,1.3c-1.1,0.4-2.2,0.1-3.1-0.8
			c-1.6-1.6-2.2-3.6-2.8-5.7c-2.6-8.6-2.1-14.4-0.5-22.8C1360.6,24.6,1361,23.2,1361.4,22.3z M1363.4,44.5c2.3-0.2,4-1.2,5.4-3.2
			c1.3-2.2,1.6-4.6,0.3-7c-1.3-2.5-3.4-3.8-6.2-3.9"/>
		<path class="st16" d="M1361.7,51.8c-3.6-1.9-7.2-3.8-10.7-5.8c-0.8-0.5-1.7-0.9-2.6-1.4c-0.4-0.2-0.6-0.5-0.6-0.9
			c-0.1-4-0.2-7.9-0.3-11.9c0-0.3,0.1-0.7,0.3-0.8c4.3-2.6,8.6-5.2,12.8-7.8c0.1,0,0.2-0.1,0.2-0.1
			C1358.1,33,1358.1,42.3,1361.7,51.8z"/>
		<path class="st16" d="M1347.8,43.8c-2.3,0-4.6,0.2-6.9,0.1c-3-0.2-5.2-2.7-5.2-5.9c-0.1-3.1,2-5.7,5-6c2.2-0.2,4.5-0.2,6.8-0.3
			C1347.6,35.8,1347.7,39.8,1347.8,43.8z"/>
		<path class="st16" d="M1342.6,43.9c1.4,0,2.9-0.1,4.4-0.1c0.7,0,1.1,0.5,1.1,1.1c0.1,5.2,0.3,10.4,0.4,15.5c0,1.2-0.4,2.1-1.5,2.7
			c-1,0.5-2,0.4-2.8-0.3c-0.7-0.5-1.1-1.2-1.1-2c-0.2-5.6-0.3-11.2-0.4-16.8C1342.5,44.1,1342.6,44,1342.6,43.9z"/>
	</g>
</g>
<g id="line_3" class="st17">
	<path class="st18" d="M1384.6,715.2c-0.8-0.9-1.6-2-2.5-3c-1.4-1.7-2.7-3.4-4.1-5"/>
</g>
<g id="line_2" class="st17">
	<path class="st18" d="M1381.1,701.6c1.8,0.2,3.6,0.5,5.4,0.7c1.6,0.2,3.3,0.4,4.9,0.6"/>
</g>
<g id="line_1" class="st17">
	<path class="st18" d="M1387.2,689.2c-2.4,2.3-4.7,4.5-7.1,6.8"/>
</g>
<g id="call">
	<path class="st16" d="M72.5,324c0.4,0.3,0.8,0.6,1.1,1c0.6,0.8,0.7,1.6,0.4,2.6c-0.5,1.6-0.9,3.1-1.1,4.8c-0.1,0.7-0.1,1.3-0.1,2
		c-0.1,1-0.6,1.8-1.5,2.3c-1.4,0.9-2.8,1.9-4.2,2.8c-0.1,0.1-0.1,0.2-0.1,0.3c0.7,4.4,2.4,8.4,5.3,11.7c0.3,0.3,0.5,0.6,0.8,0.9
		c0.1,0.1,0.3,0.1,0.4,0.1c1.6-0.5,3.2-1,4.8-1.6c1-0.3,1.8-0.2,2.7,0.3c0.8,0.5,1.6,1.1,2.5,1.6c1.1,0.6,2.3,1.1,3.4,1.6
		c1.4,0.6,2.1,1.6,2,3c0,0.3-0.1,0.6-0.2,0.9c-0.7,2-1.4,4-2.1,6.1c-0.6,1.7-2.2,2.5-4,1.9c-6.4-2.3-11.7-6.1-15.7-11.5
		c-3.9-5.2-6.2-11.2-6.7-17.7c-0.3-3.2-0.1-6.4,0.6-9.5c0.2-0.9,0.4-1.8,0.7-2.7c0.2-0.6,0.4-1.1,0.6-1.7c0.3-0.4,0.7-0.8,1.1-1.1
		c0.6-0.5,1.4-0.6,2.2-0.5C67.8,322.4,70.1,323.2,72.5,324z"/>
</g>
<g id="call_1" class="st17">
	<path class="st18" d="M79.8,1001.9c1.3,0.2,2.6,1,3.2,2.3s0.4,2.8-0.4,4"/>
</g>
<g id="call_2" class="st17">
	<path class="st18" d="M80.4,997.9c2.9-0.1,5.7,1.4,6.9,4.2c1.3,2.7,0.5,5.9-1.5,8"/>
</g>
<g id="call_3" class="st17">
	<path class="st18" d="M81.3,994.3c4.2-0.5,8.5,1.7,10.3,5.8c1.9,4,0.6,8.8-2.5,11.7"/>
</g>
<g id="mail_content">
	<path class="st19" d="M148.6,138.7l-48.2-0.5c-1.6,0-2.9-1.3-2.8-2.9l0.3-30.5c0-1.6,1.3-2.9,2.9-2.8l48.2,0.5
		c1.6,0,2.9,1.3,2.8,2.9l-0.3,30.5C151.5,137.4,150.2,138.7,148.6,138.7z"/>
	<g>
		<path class="st16" d="M108.8,111.2c0-1.6,1.3-2.9,2.9-2.9l26.2,0.3c1.6,0,2.9,1.3,2.9,2.9"/>
		<line class="st12" x1="110.1" y1="112.3" x2="139.1" y2="112.7"/>
		<line class="st12" x1="114.5" y1="116.4" x2="134.5" y2="116.6"/>
	</g>
	<g>
		<line class="st16" x1="129.2" y1="120.7" x2="151.1" y2="137.3"/>
		<line class="st16" x1="97.8" y1="136.7" x2="119.8" y2="120.9"/>
	</g>
	<path class="st12" d="M150.8,103.1l-24.6,20.7c-1.1,0.9-2.5,0.9-3.5-0.1l-23.8-21.2"/>
</g>
<g id="mail_cover">
	<path class="st19" d="M150.8,103.1l-24.6,20.6c-1.1,0.9-2.5,0.9-3.5-0.1l-23.8-21.1"/>
</g>
<g id="Twitter">
	<g>
		<path class="st12" d="M372.6,258.6c0,0.2,0,0.4,0,0.5c-0.6,1-1.3,2-1.9,3.1c-0.1,0.1-0.1,0.3-0.1,0.5c0.1,0.8,0.2,1.5,0.2,2.3
			c0.2,2.9-0.2,5.8-1.2,8.6c-0.9,2.5-2.3,4.6-4,6.6c-2,2.3-4.3,4-7.2,5.1c-3,1.2-6.2,1.6-9.4,1.6c-3.9,0-7.7-0.7-11.4-2
			c-1.3-0.5-2.6-1.1-3.6-2c-0.4-0.4-0.5-0.8-0.3-1.3s0.6-0.7,1.1-0.8c0.4,0,0.8,0,1.2,0c1.7,0,3.4-0.1,5.1-0.6
			c1.2-0.4,2.2-0.9,3.2-1.7l-0.1-0.1c-0.2,0-0.3-0.1-0.5-0.1c-2.6-0.8-5-1.9-7-3.8c-0.4-0.4-0.6-0.8-0.4-1.3c0.1-0.5,0.5-0.8,1-0.9
			c0.4-0.1,0.7-0.2,1.1-0.3c-0.3-0.2-0.5-0.3-0.7-0.4c-2.5-1.5-4.1-3.6-4.8-6.4c-0.1-0.2-0.1-0.4-0.2-0.6c0-0.2,0-0.4,0-0.5
			c0.4-0.9,0.9-1.1,1.8-0.8c0.3,0.1,0.6,0.2,1,0.3c-0.1-0.2-0.1-0.3-0.1-0.4c-0.6-1.4-0.9-2.9-0.7-4.5c0.2-1.3,0.6-2.5,1.4-3.5
			c0.5-0.7,1.5-0.7,2,0c0.1,0.2,0.2,0.4,0.4,0.6c2.1,3.6,5.1,6.2,9,7.7c1.4,0.5,2.8,0.8,4.3,1c0-0.2,0-0.4,0-0.6
			c0-2.9,0.9-5.4,3-7.4c2.4-2.4,6.3-3.2,9.4-1.8c0.4,0.2,0.7,0.2,1.1,0c1.4-0.7,2.9-1.4,4.3-2.1c0.4-0.2,0.9-0.3,1.3,0
			c0.6,0.3,0.7,1,0.4,1.7c-0.5,1.1-1.1,2.2-1.6,3.3c-0.1,0.1-0.1,0.2-0.2,0.4c0.6,0,1.1-0.1,1.6-0.1
			C371.7,257.6,372.3,257.8,372.6,258.6z"/>
	</g>
</g>
</svg>
